<svg xmlns="http://www.w3.org/2000/svg" viewBox="0 0 56.98 127.91"><defs><style>.cls-2{stroke:#f39540;stroke-miterlimit:10;stroke-width:3.17px;fill:#fff}</style></defs><g id="Layer_2" data-name="Layer 2"><g id="Слой_1" data-name="Слой 1"><path d="M49.78 21.17C49.78 10.36 45 1.59 39 1.59s-10.68 8.77-10.68 19.58v30.56" stroke="#f39540" stroke-miterlimit="10" stroke-width="3.17" fill="none"/><ellipse class="cls-2" cx="28.42" cy="51.32" rx="5.62" ry="5.49"/><ellipse class="cls-2" cx="28.76" cy="120.84" rx="5.62" ry="5.49"/><ellipse class="cls-2" cx="38.79" cy="116.35" rx="5.62" ry="5.49"/><ellipse class="cls-2" cx="45.43" cy="107.61" rx="5.62" ry="5.49"/><ellipse class="cls-2" cx="48.75" cy="97.39" rx="5.62" ry="5.49"/><ellipse class="cls-2" cx="49.78" cy="86.16" rx="5.62" ry="5.49"/><ellipse class="cls-2" cx="48.5" cy="75.43" rx="5.62" ry="5.49"/><ellipse class="cls-2" cx="45.18" cy="64.95" rx="5.62" ry="5.49"/><ellipse class="cls-2" cx="38.54" cy="55.72" rx="5.62" ry="5.49"/><ellipse class="cls-2" cx="18.19" cy="116.51" rx="5.62" ry="5.49"/><ellipse class="cls-2" cx="11.55" cy="107.78" rx="5.62" ry="5.49"/><ellipse class="cls-2" cx="8.23" cy="97.55" rx="5.62" ry="5.49"/><ellipse class="cls-2" cx="7.21" cy="86.33" rx="5.62" ry="5.49"/><ellipse class="cls-2" cx="8.48" cy="75.6" rx="5.62" ry="5.49"/><ellipse class="cls-2" cx="11.8" cy="65.12" rx="5.62" ry="5.49"/><ellipse class="cls-2" cx="18.45" cy="55.89" rx="5.62" ry="5.49"/><ellipse cx="28.76" cy="85.91" rx="15.07" ry="29.19" fill="#098d5a" stroke="#f39540" stroke-miterlimit="10" stroke-width="3.17"/></g></g></svg>