<svg xmlns="http://www.w3.org/2000/svg" viewBox="0 0 133.15 134.33"><defs><style>.cls-3{fill:#cfcecd}</style></defs><g id="Layer_2" data-name="Layer 2"><g id="Слой_1" data-name="Слой 1"><ellipse cx="26.43" cy="84.37" rx="25.25" ry="39.09" fill="#fff" stroke="#010101" stroke-miterlimit="10" stroke-width=".23"/><circle cx="26.43" cy="95.09" r="15.22" fill="#efe63f"/><path class="cls-3" d="M15.71 77.81L25.9 54.65 37 74.11l6.48-17.6L60.14 69.9v-3.2C60.17 29.86 46.69 0 30.07 0 14 0 .79 28.05 0 63.32L10.15 52.8z"/><path class="cls-3" d="M54.87 92.81L73.36 96l-17.1 14.48 24.63 5.79-23.57 10 12.19 8.06q1.66-.27 3.33-.58C109.05 127 136 108.32 132.91 92 130 76.1 99.89 68.29 65 74z"/></g></g></svg>