<svg xmlns="http://www.w3.org/2000/svg" viewBox="0 0 122.26 24"><defs><style>.cls-1{fill:#676767;}</style></defs><title>Asset 6</title><g id="Layer_2" data-name="Layer 2"><g id="Слой_1" data-name="Слой 1"><polygon class="cls-1" points="5.5 15.94 2.29 15.94 3.9 17.55 5.5 15.94"/><polygon class="cls-1" points="2.29 19.64 5.5 19.64 3.9 18.04 2.29 19.64"/><polygon class="cls-1" points="13.61 15.94 10.39 15.94 12 17.55 13.61 15.94"/><polygon class="cls-1" points="10.39 19.64 13.61 19.64 12 18.03 10.39 19.64"/><polygon class="cls-1" points="4.85 12.55 5.5 11.89 2.29 11.89 3.87 13.47 3.9 13.5 4.85 12.55"/><polygon class="cls-1" points="2.04 12.14 2.04 15.36 2.31 15.09 3.65 13.75 2.04 12.14"/><polygon class="cls-1" points="2.29 15.6 5.5 15.6 3.9 13.99 2.29 15.6"/><polygon class="cls-1" points="5.75 15.36 5.75 12.14 4.14 13.75 5.75 15.36"/><polygon class="cls-1" points="6.34 11.89 7.14 12.7 7.95 13.5 9.55 11.89 6.34 11.89"/><polygon class="cls-1" points="7.7 13.75 6.62 12.66 6.1 12.14 6.09 15.36 7.7 13.75"/><polygon class="cls-1" points="6.34 15.6 9.55 15.6 7.95 13.99 6.67 15.27 6.34 15.6"/><polygon class="cls-1" points="9.03 12.9 8.19 13.75 8.39 13.95 9.8 15.36 9.8 12.14 9.03 12.9"/><polygon class="cls-1" points="12 13.51 13.61 11.89 10.39 11.89 12 13.51"/><polygon class="cls-1" points="11.76 13.75 10.15 12.14 10.15 15.36 11.76 13.75"/><polygon class="cls-1" points="11.47 14.51 10.39 15.6 13.61 15.6 12 13.99 11.47 14.51"/><polygon class="cls-1" points="13.67 15.18 13.85 15.36 13.85 12.14 13.47 12.52 12.24 13.75 13.67 15.18"/><polygon class="cls-1" points="0 10.1 0 13.32 1.61 11.71 0 10.1"/><polygon class="cls-1" points="0.09 9.7 0.47 10.09 1.7 11.31 1.7 8.09 0.09 9.7"/><polygon class="cls-1" points="2.04 8.09 2.04 11.31 3.26 10.1 3.65 9.7 2.04 8.09"/><polygon class="cls-1" points="3.42 10.41 2.29 11.55 5.5 11.55 3.9 9.94 3.42 10.41"/><polygon class="cls-1" points="7.81 10.08 6.34 11.55 9.55 11.55 7.95 9.94 7.81 10.08"/><polygon class="cls-1" points="10.39 11.55 13.61 11.55 12 9.94 10.39 11.55"/><polygon class="cls-1" points="13.85 11.31 13.85 8.09 12.24 9.7 13.85 11.31"/><polygon class="cls-1" points="15.81 9.7 14.2 8.09 14.2 11.31 15.27 10.24 15.81 9.7"/><polygon class="cls-1" points="15.89 13.32 15.89 10.1 14.69 11.3 14.28 11.71 15.89 13.32"/><polygon class="cls-1" points="5.5 3.8 2.29 3.8 3.9 5.41 3.94 5.37 5.5 3.8"/><polygon class="cls-1" points="2.04 4.05 2.04 7.26 2.31 7 3.65 5.66 2.04 4.05"/><polygon class="cls-1" points="6.34 3.8 7.95 5.41 9.55 3.8 6.34 3.8"/><polygon class="cls-1" points="13.21 4.21 13.61 3.8 10.39 3.8 12 5.41 13.21 4.21"/><polygon class="cls-1" points="13.85 7.26 13.85 4.05 13.47 4.43 12.24 5.66 13.85 7.26"/><polygon class="cls-1" points="2.04 3.22 3.65 1.61 2.04 0 2.04 3.22"/><polygon class="cls-1" points="5.5 3.46 3.9 1.85 3.42 2.32 2.29 3.46 5.5 3.46"/><polygon class="cls-1" points="10.39 3.46 13.61 3.46 12 1.85 10.39 3.46"/><polygon class="cls-1" points="12.24 1.61 13.85 3.22 13.85 0 12.24 1.61"/><rect class="cls-1" x="9.62" y="7.32" width="0.71" height="0.71" transform="translate(-2.51 9.3) rotate(-45)"/><rect class="cls-1" x="5.58" y="7.32" width="0.71" height="0.71" transform="translate(-3.69 6.44) rotate(-44.99)"/><path class="cls-1" d="M2.1,22a1.39,1.39,0,0,0,.52.13c.23,0,.34-.14.34-.25s-.23-.28-.43-.38S2,21.22,2,20.92a.59.59,0,0,1,.67-.6,1.8,1.8,0,0,1,.61.09l0,.34a1.31,1.31,0,0,0-.46-.1c-.26,0-.32.14-.32.22s.15.25.28.3c.35.15.64.27.64.7s-.26.62-.81.62a1.55,1.55,0,0,1-.55-.11Z"/><path class="cls-1" d="M4.2,20.35v.85h.86v-.85h.43v2.12H5.06v-.92H4.2v.92H3.77V20.35Z"/><path class="cls-1" d="M7.69,21.66c0,.3-.08.83-.88.83a.78.78,0,0,1-.89-.83V20.35h.43v1.31a.46.46,0,1,0,.91,0V20.35h.43Z"/><path class="cls-1" d="M8.1,22a1.39,1.39,0,0,0,.52.13c.23,0,.34-.14.34-.25s-.23-.28-.43-.38S8,21.22,8,20.92a.59.59,0,0,1,.67-.6,1.8,1.8,0,0,1,.61.09l0,.34a1.31,1.31,0,0,0-.46-.1c-.26,0-.32.14-.32.22s.15.25.28.3c.35.15.64.27.64.7s-.26.62-.81.62a1.55,1.55,0,0,1-.55-.11Z"/><path class="cls-1" d="M10.21,20.35v.85h.86v-.85h.43v2.12h-.43v-.92h-.86v.92H9.78V20.35Z"/><path class="cls-1" d="M13.09,20.35l.84,2.12h-.48L13.27,22H12.4l-.18.48h-.46l.84-2.12Zm.05,1.29-.31-.87h0l-.29.87Z"/><path class="cls-1" d="M26.54,17v5.37h-.64v-.52h0a1.22,1.22,0,0,1-.42.37,1.55,1.55,0,0,1-.81.21,1.42,1.42,0,0,1-1.17-.54,2.19,2.19,0,0,1-.42-1.39,1.92,1.92,0,0,1,.49-1.38,1.38,1.38,0,0,1,1.09-.46,1.44,1.44,0,0,1,.8.19,1.16,1.16,0,0,1,.41.36h0V17Zm-.94,2.63a1,1,0,0,0-.82-.43.88.88,0,0,0-.73.35,1.57,1.57,0,0,0-.27,1,1.68,1.68,0,0,0,.23.89.89.89,0,0,0,.78.46,1,1,0,0,0,.77-.37,1.69,1.69,0,0,0,0-1.88Z"/><path class="cls-1" d="M28.15,20.73a1.24,1.24,0,0,0,.31.81,1.21,1.21,0,0,0,.92.38,2.09,2.09,0,0,0,1.1-.37v.67l-.1,0a2.48,2.48,0,0,1-1.05.2,1.86,1.86,0,0,1-1.42-.52,2,2,0,0,1-.47-1.37A1.85,1.85,0,0,1,28,19.11a1.65,1.65,0,0,1,1.15-.42,1.46,1.46,0,0,1,1.21.51,2.2,2.2,0,0,1,.4,1.32v.19Zm1.89-.5a1,1,0,0,0-.21-.66.93.93,0,0,0-1.45,0,1.32,1.32,0,0,0-.23.62Z"/><path class="cls-1" d="M31.46,21.67a1.76,1.76,0,0,0,.85.25.81.81,0,0,0,.54-.18.43.43,0,0,0,.14-.33.39.39,0,0,0-.18-.33,2.87,2.87,0,0,0-.49-.29l-.14-.06a1.64,1.64,0,0,1-.65-.49.81.81,0,0,1-.12-.44,1,1,0,0,1,.32-.78,1.45,1.45,0,0,1,1-.31,2.66,2.66,0,0,1,.84.14l-.06.57a1.12,1.12,0,0,0-.31-.12,1.76,1.76,0,0,0-.39,0,1,1,0,0,0-.44.09.39.39,0,0,0-.21.34c0,.35.37.48.66.62l.11,0a1.57,1.57,0,0,1,.66.46,1,1,0,0,1,.16.57,1,1,0,0,1-.37.8,1.4,1.4,0,0,1-1,.29,2.24,2.24,0,0,1-1-.2Z"/><path class="cls-1" d="M35.27,17.94h-.76v-.76h.76Zm-.72.82h.67v3.65h-.67Z"/><path class="cls-1" d="M39.6,22.25a1.71,1.71,0,0,1-.45,1.29,2,2,0,0,1-1.43.46,3.88,3.88,0,0,1-1.31-.25l.07-.62a3,3,0,0,0,1.27.33,1.09,1.09,0,0,0,.92-.39,1.41,1.41,0,0,0,.26-.87v-.36h0a1.26,1.26,0,0,1-.52.42,1.7,1.7,0,0,1-.7.14,1.44,1.44,0,0,1-1.14-.5,2.07,2.07,0,0,1-.42-1.3,2,2,0,0,1,.44-1.34,1.53,1.53,0,0,1,1.25-.57,1.51,1.51,0,0,1,.72.17,1.08,1.08,0,0,1,.44.43h0v-.54h.62Zm-.93-.79a1.51,1.51,0,0,0,.26-.87,1.63,1.63,0,0,0-.27-1,.88.88,0,0,0-.78-.39.92.92,0,0,0-.77.39,1.63,1.63,0,0,0-.26.94,1.57,1.57,0,0,0,.27.91,1,1,0,0,0,1.55,0Z"/><path class="cls-1" d="M40.74,18.76h.67v.52h0a1.33,1.33,0,0,1,.48-.42,1.44,1.44,0,0,1,.69-.16,1.31,1.31,0,0,1,1,.4A1.72,1.72,0,0,1,44,20.24v2.17h-.67V20.52a1.68,1.68,0,0,0-.23-1,.75.75,0,0,0-.59-.24,1,1,0,0,0-.72.31,1.77,1.77,0,0,0-.34,1.16v1.69h-.67Z"/><path class="cls-1" d="M46.72,17h.67v2.22h0a1.17,1.17,0,0,1,.42-.38,1.64,1.64,0,0,1,.75-.18,1.47,1.47,0,0,1,1.23.57,2.07,2.07,0,0,1,.38,1.25,2.45,2.45,0,0,1-.35,1.32,1.41,1.41,0,0,1-1.22.63,1.73,1.73,0,0,1-.8-.19,1.17,1.17,0,0,1-.44-.38h0v.52h-.64Zm.94,4.46a1,1,0,0,0,.81.42.88.88,0,0,0,.74-.39,1.74,1.74,0,0,0,.27-1,1.53,1.53,0,0,0-.24-.89.88.88,0,0,0-.76-.39,1,1,0,0,0-.77.36,1.7,1.7,0,0,0,0,1.9Z"/><path class="cls-1" d="M50.82,23.39a.91.91,0,0,0,.29.06.7.7,0,0,0,.49-.19,1.31,1.31,0,0,0,.29-.55l0-.16-.09-.27-1.28-3.52h.74l1,3h0l1-3H54l-1.37,3.79a3.76,3.76,0,0,1-.48,1,1.12,1.12,0,0,1-.94.44,1.46,1.46,0,0,1-.39,0h0Z"/><path class="cls-1" d="M60.37,22.41h-.78l-.95-3.06h0l-.92,3.06h-.78l-1.17-3.65h.74l.84,3h0l.93-3h.79l.92,3h0l.89-3h.66Z"/><path class="cls-1" d="M66.33,22.41h-.78l-.95-3.06h0l-.92,3.06h-.78l-1.17-3.65h.74l.84,3h0l.93-3H65l.92,3h0l.89-3h.66Z"/><path class="cls-1" d="M72.28,22.41H71.5l-.94-3.06h0l-.92,3.06h-.78l-1.17-3.65h.74l.84,3h0l.93-3H71l.92,3h0l.89-3h.66Z"/><path class="cls-1" d="M73.87,21.6h.8v.8h-.8Z"/><path class="cls-1" d="M75.64,21.67a1.76,1.76,0,0,0,.85.25.81.81,0,0,0,.54-.18.43.43,0,0,0,.14-.33.39.39,0,0,0-.18-.33,2.87,2.87,0,0,0-.49-.29l-.14-.06a1.64,1.64,0,0,1-.65-.49.81.81,0,0,1-.12-.44A1,1,0,0,1,75.9,19a1.45,1.45,0,0,1,1-.31,2.66,2.66,0,0,1,.84.14l-.06.57a1.12,1.12,0,0,0-.31-.12,1.76,1.76,0,0,0-.39,0,1,1,0,0,0-.44.09.39.39,0,0,0-.21.34c0,.35.37.48.66.62l.11,0a1.57,1.57,0,0,1,.66.46,1,1,0,0,1,.16.57,1,1,0,0,1-.37.8,1.4,1.4,0,0,1-1,.29,2.24,2.24,0,0,1-1-.2Z"/><path class="cls-1" d="M78.73,17h.67v2.24h0a1.33,1.33,0,0,1,.48-.42,1.44,1.44,0,0,1,.69-.16,1.31,1.31,0,0,1,1,.4A1.72,1.72,0,0,1,82,20.24v2.17h-.67V20.52a1.6,1.6,0,0,0-.23-1,.74.74,0,0,0-.59-.24,1,1,0,0,0-.72.31,1.77,1.77,0,0,0-.34,1.16v1.69h-.67Z"/><path class="cls-1" d="M86.23,22.41h-.67v-.52h0a1.33,1.33,0,0,1-.48.42,1.44,1.44,0,0,1-.69.16,1.31,1.31,0,0,1-1-.4A1.73,1.73,0,0,1,83,20.92V18.76h.67v1.89a1.68,1.68,0,0,0,.23,1,.75.75,0,0,0,.59.24,1,1,0,0,0,.72-.32,1.77,1.77,0,0,0,.34-1.16V18.76h.67Z"/><path class="cls-1" d="M87.18,21.67a1.76,1.76,0,0,0,.85.25.8.8,0,0,0,.54-.18.43.43,0,0,0,.14-.33.39.39,0,0,0-.18-.33A2.87,2.87,0,0,0,88,20.8l-.14-.06a1.63,1.63,0,0,1-.65-.49.81.81,0,0,1-.12-.44,1,1,0,0,1,.32-.78,1.45,1.45,0,0,1,1-.31,2.65,2.65,0,0,1,.84.14l-.06.57a1.14,1.14,0,0,0-.31-.12,1.76,1.76,0,0,0-.39,0,1,1,0,0,0-.44.09.39.39,0,0,0-.21.34c0,.35.37.48.66.62l.11,0a1.57,1.57,0,0,1,.66.46,1,1,0,0,1,.16.57,1,1,0,0,1-.37.8,1.4,1.4,0,0,1-1,.29,2.24,2.24,0,0,1-1-.2Z"/><path class="cls-1" d="M90.27,17h.67v2.24h0a1.34,1.34,0,0,1,.48-.42,1.44,1.44,0,0,1,.69-.16,1.31,1.31,0,0,1,1,.4,1.73,1.73,0,0,1,.34,1.14v2.17h-.67V20.52a1.6,1.6,0,0,0-.23-1,.75.75,0,0,0-.59-.24,1,1,0,0,0-.71.31,1.77,1.77,0,0,0-.34,1.16v1.69h-.67Z"/><path class="cls-1" d="M94.76,19A2.54,2.54,0,0,1,96,18.7a1.49,1.49,0,0,1,1.07.36,1.48,1.48,0,0,1,.34,1.13v1.48a6.55,6.55,0,0,0,0,.74h-.63v-.49h0a1.46,1.46,0,0,1-1.2.55,1.53,1.53,0,0,1-.87-.26,1,1,0,0,1-.4-.83,1.09,1.09,0,0,1,.57-1,2.77,2.77,0,0,1,1.38-.24h.46V20a.64.64,0,0,0-.21-.54,1,1,0,0,0-.67-.19,1.81,1.81,0,0,0-1.08.36Zm2,1.65h-.39a1.88,1.88,0,0,0-1,.2.56.56,0,0,0-.26.49.52.52,0,0,0,.19.42.85.85,0,0,0,.52.16,1,1,0,0,0,.74-.29.93.93,0,0,0,.24-.65Z"/><path class="cls-1" d="M98.27,20.21h1.84v.54H98.27Z"/><path class="cls-1" d="M101.89,17.7v1.06h1v.54h-1v2a.68.68,0,0,0,.16.47.57.57,0,0,0,.44.18.81.81,0,0,0,.43-.13v.57a1.85,1.85,0,0,1-.59.1,1.24,1.24,0,0,1-.79-.24,1,1,0,0,1-.31-.82V19.3h-.79v-.54h.79v-.84Z"/><path class="cls-1" d="M106.62,19.27a2.05,2.05,0,0,1,0,2.62,2,2,0,0,1-2.76,0,2.05,2.05,0,0,1,0-2.62,2,2,0,0,1,2.76,0Zm-2.24.4a1.51,1.51,0,0,0-.28.91,1.48,1.48,0,0,0,.28.91,1.07,1.07,0,0,0,1.72,0,1.62,1.62,0,0,0,0-1.82,1.07,1.07,0,0,0-.86-.43A1.11,1.11,0,0,0,104.38,19.67Z"/><path class="cls-1" d="M107.72,23.39a.91.91,0,0,0,.29.06.71.71,0,0,0,.49-.19,1.3,1.3,0,0,0,.29-.55l0-.16-.09-.27-1.28-3.52h.74l1,3h0l1-3h.68l-1.37,3.79a3.73,3.73,0,0,1-.48,1,1.11,1.11,0,0,1-.94.44,1.46,1.46,0,0,1-.39,0h0Z"/><path class="cls-1" d="M111.28,21.67a1.76,1.76,0,0,0,.85.25.81.81,0,0,0,.54-.18.43.43,0,0,0,.14-.33.39.39,0,0,0-.18-.33,2.87,2.87,0,0,0-.49-.29l-.14-.06a1.64,1.64,0,0,1-.65-.49.81.81,0,0,1-.12-.44,1,1,0,0,1,.32-.78,1.45,1.45,0,0,1,1-.31,2.66,2.66,0,0,1,.84.14l-.06.57a1.12,1.12,0,0,0-.31-.12,1.76,1.76,0,0,0-.39,0,1,1,0,0,0-.44.09.39.39,0,0,0-.21.34c0,.35.37.48.66.62l.11,0a1.57,1.57,0,0,1,.66.46,1,1,0,0,1,.16.57,1,1,0,0,1-.37.8,1.4,1.4,0,0,1-1,.29,2.24,2.24,0,0,1-1-.2Z"/><path class="cls-1" d="M114.4,21.6h.8v.8h-.8Z"/><path class="cls-1" d="M117,18.76v.59h0a1.11,1.11,0,0,1,1-.65l.36,0h.06v.6a1,1,0,0,0-.37-.06.78.78,0,0,0-.64.3,1.84,1.84,0,0,0-.35,1.19v1.63h-.67V18.76Z"/><path class="cls-1" d="M122.26,22.41h-.67v-.52h0a1.33,1.33,0,0,1-.48.42,1.44,1.44,0,0,1-.69.16,1.31,1.31,0,0,1-1-.4,1.73,1.73,0,0,1-.34-1.14V18.76h.67v1.89a1.68,1.68,0,0,0,.23,1,.75.75,0,0,0,.59.24,1,1,0,0,0,.72-.32,1.77,1.77,0,0,0,.34-1.16V18.76h.67Z"/></g></g></svg>