<svg xmlns="http://www.w3.org/2000/svg" viewBox="0 0 15.92 16.96" fill="white"><polygon points="9.16 5.76 0 5.76 1.59 3.81 7.57 3.81 9.16 5.76"/><path d="M5,4.09H4.11A4.09,4.09,0,0,1,8.19,0h7.73V.85H8.19A3.24,3.24,0,0,0,5,4.09Z"/><path d="M1.93,9.56a.68.68,0,1,1-1.36,0c0-.38.3-2.28.68-2.28S1.93,9.19,1.93,9.56Z"/><path d="M5.25,9.56a.68.68,0,1,1-1.36,0c0-.38.3-2.28.68-2.28S5.25,9.19,5.25,9.56Z"/><path d="M8.56,9.56a.68.68,0,1,1-1.36,0c0-.38.3-2.28.68-2.28S8.56,9.19,8.56,9.56Z"/><path d="M1.93,16.28a.68.68,0,1,1-1.36,0c0-.38.3-2.28.68-2.28S1.93,15.9,1.93,16.28Z"/><path d="M5.25,16.28a.68.68,0,1,1-1.36,0c0-.38.3-2.28.68-2.28S5.25,15.9,5.25,16.28Z"/><path d="M8.56,16.28a.68.68,0,1,1-1.36,0c0-.38.3-2.28.68-2.28S8.56,15.9,8.56,16.28Z"/><path d="M3.57,12.88a.68.68,0,1,1-1.36,0c0-.38.3-2.28.68-2.28S3.57,12.51,3.57,12.88Z"/><path d="M6.89,12.88a.68.68,0,1,1-1.36,0c0-.38.3-2.28.68-2.28S6.89,12.51,6.89,12.88Z"/></svg>
