<svg xmlns="http://www.w3.org/2000/svg" viewBox="0 0 213.73 159.16"><defs><style>.cls-1{fill:#4c4c4c;}.cls-2{fill:#231300;}.cls-3{fill:#fff;}.cls-4{fill:#f24943;}.cls-5{fill:#9a9b9b;}.cls-6{fill:#00bcc5;}</style></defs><title>bed</title><g id="Layer_2" data-name="Layer 2"><g id="Слой_2" data-name="Слой 2"><ellipse cx="56.84" cy="112.61" rx="24.54" ry="39.85"/><polygon class="cls-1" points="46.23 141.04 45.22 134.79 47.24 134.79 46.23 141.04"/><polygon class="cls-1" points="49.48 141.04 48.47 134.79 50.49 134.79 49.48 141.04"/><polygon class="cls-1" points="52.73 141.04 51.72 134.79 53.74 134.79 52.73 141.04"/><circle class="cls-1" cx="47.73" cy="122.37" r="0.92"/><circle class="cls-1" cx="51.23" cy="122.37" r="0.92"/><rect x="83.45" y="131.94" width="75.07" height="14.97" rx="7.48" ry="7.48"/><rect x="83.45" y="137.38" width="3.86" height="21.77" rx="1.93" ry="1.93"/><rect x="88.14" y="137.38" width="3.86" height="21.77" rx="1.93" ry="1.93"/><rect x="92.83" y="137.38" width="3.86" height="21.77" rx="1.93" ry="1.93"/><rect x="97.52" y="132.53" width="3.86" height="19.73" rx="1.93" ry="1.93"/><ellipse class="cls-2" cx="174.87" cy="147.18" rx="22.04" ry="3.54" transform="translate(-22.51 31.93) rotate(-9.81)"/><rect class="cls-2" x="183.97" y="111.79" width="13.14" height="40.75" transform="translate(381.08 264.33) rotate(180)"/><path class="cls-3" d="M36.16,112.24a8.52,8.52,0,0,0,12.05,0A8.52,8.52,0,0,0,36.16,112.24Z"/><circle class="cls-4" cx="42.19" cy="112.24" r="2.55"/><path class="cls-3" d="M50.75,112.24a8.52,8.52,0,0,0,12.05,0A8.52,8.52,0,0,0,50.75,112.24Z"/><circle class="cls-4" cx="56.78" cy="112.24" r="2.55"/><rect class="cls-3" x="102.23" y="-18.95" width="9.61" height="198.62" transform="translate(187.39 -26.67) rotate(90)"/><rect class="cls-3" x="102.06" y="-28.3" width="9.61" height="198.62" transform="translate(177.88 -35.85) rotate(90)"/><path class="cls-3" d="M11.31,12.93A53.75,53.75,0,0,0,65.1,66.72,53.75,53.75,0,0,0,11.31,12.93Z"/><circle class="cls-5" cx="6.4" cy="6.4" r="6.4"/><rect class="cls-5" x="1.79" y="12.29" width="9.61" height="140.25"/><rect class="cls-5" x="102.06" y="-9.3" width="9.61" height="198.62" transform="translate(196.87 -16.85) rotate(90)"/><rect class="cls-5" x="204.12" y="29.5" width="9.61" height="123.04"/><rect class="cls-6" x="99.35" y="33.27" width="76.65" height="133.05" transform="translate(237.48 -37.88) rotate(90)"/></g></g></svg>