<svg xmlns="http://www.w3.org/2000/svg" viewBox="0 0 131.37 275.06"><defs><style>.cls-1,.cls-2{fill:none;stroke:#000;stroke-miterlimit:10;}.cls-2{stroke-width:3.22px;}.cls-3{fill:#058d5a;}.cls-4{fill:#231300;}.cls-5{fill:#fff;}</style></defs><title>spider</title><g id="Layer_2" data-name="Layer 2"><g id="Слой_1" data-name="Слой 1"><line class="cls-1" x1="64.81" x2="64.81" y2="171.94"/><polyline class="cls-2" points="1.14 231.43 20.34 212.22 39.54 231.43"/><polyline class="cls-2" points="1.14 242.89 20.34 223.68 39.54 242.89"/><polyline class="cls-2" points="1.14 254.35 20.34 235.14 39.54 254.35"/><polyline class="cls-2" points="91.82 231.43 111.03 212.22 130.23 231.43"/><polyline class="cls-2" points="91.82 242.89 111.03 223.68 130.23 242.89"/><polyline class="cls-2" points="91.82 254.35 111.03 235.14 130.23 254.35"/><ellipse class="cls-3" cx="65.68" cy="247.99" rx="29.63" ry="19.08"/><ellipse cx="65.68" cy="227.99" rx="29.63" ry="19.08"/><ellipse class="cls-3" cx="65.68" cy="209.66" rx="29.63" ry="19.08"/><ellipse cx="65.68" cy="190.32" rx="29.63" ry="19.08"/><circle class="cls-3" cx="56.84" cy="185.82" r="7.16"/><circle class="cls-4" cx="56.84" cy="185.82" r="3.93"/><circle class="cls-3" cx="74.53" cy="185.82" r="7.16"/><circle class="cls-4" cx="74.53" cy="185.82" r="3.93"/><polyline class="cls-2" points="19.36 183.94 33.14 170.15 46.92 183.94"/><polyline class="cls-2" points="19.36 192.16 33.14 178.38 46.92 192.16"/><polyline class="cls-2" points="19.36 200.39 33.14 186.61 46.92 200.39"/><polyline class="cls-2" points="84.45 183.94 98.23 170.15 112.01 183.94"/><polyline class="cls-2" points="84.45 192.16 98.23 178.38 112.01 192.16"/><polyline class="cls-2" points="84.45 200.39 98.23 186.61 112.01 200.39"/><polygon class="cls-5" points="62.67 202.39 61.38 194.52 63.97 194.52 62.67 202.39"/><polygon class="cls-5" points="68.28 202.39 66.98 194.52 69.58 194.52 68.28 202.39"/><polygon class="cls-5" points="57.68 242.06 56.38 234.19 58.97 234.19 57.68 242.06"/><polygon class="cls-5" points="63.28 242.06 61.98 234.19 64.58 234.19 63.28 242.06"/><polygon class="cls-5" points="68.68 242.06 67.38 234.19 69.97 234.19 68.68 242.06"/><polygon class="cls-5" points="74.28 242.06 72.98 234.19 75.58 234.19 74.28 242.06"/><polygon points="64.94 275.06 63.65 267.19 66.24 267.19 64.94 275.06"/></g></g></svg>