<svg width="50" xmlns="http://www.w3.org/2000/svg" viewBox="0 0 141.6 138.47" class="heart">
   <path class="cls-1" d="M51.65,133.57l-48.3,-62.16a25,25,0,1,1,43.29,-25l5,8.68l5,-8.68a25,25,0,1,1,43.29,25z"></path>
   <line class="cls-2" x1="77.76" y1="63.18" x2="125.64" y2="15.3"></line>
   <line class="cls-2" x1="8.59" y1="132.01" x2="32.54" y2="108.07"></line>
   <line class="cls-2" x1="104.69" y1="13.3" x2="104.69" y2="36.58"></line>
   <line class="cls-2" x1="111.34" y1="5.32" x2="111.34" y2="28.6"></line>
   <line class="cls-2" x1="117.99" x2="117.99" y2="23.28"></line>
   <line class="cls-2" x1="128.3" y1="35.58" x2="105.02" y2="35.58"></line>
   <line class="cls-2" x1="136.28" y1="28.93" x2="113" y2="28.93"></line>
   <line class="cls-2" x1="141.6" y1="22.28" x2="118.32" y2="22.28"></line>
   <polygon points="2.11 138.47 7.99 127.95 13.87 117.43 18.51 122.07 23.16 126.72 12.64 132.6 2.11 138.47"></polygon>
</svg>
